<svg class="gamepadIcon startAnimation" height="${size}" viewBox="0 0 757 598" fill="none" xmlns="http://www.w3.org/2000/svg">
<rect class="b5 b7" width="81.4362" height="32.969" rx="16.4845" transform="matrix(-0.971714 -0.236162 -0.236162 0.971714 567.852 98.2321)" fill="#1E1E1E"></rect>
<rect class="b4 b6" x="188" y="98.2321" width="81.4362" height="32.969" rx="16.4845" transform="rotate(-13.6601 188 98.2321)" fill="#1E1E1E"></rect>
<rect x="184" y="429.523" width="194.434" height="30" rx="5" transform="rotate(-66.6596 184 429.523)" fill="#1E1E1E"></rect>
<rect width="194.434" height="30" rx="5" transform="matrix(-0.396194 -0.918167 -0.918167 0.396194 575.297 429.523)" fill="#1E1E1E"></rect>
<rect x="264" y="129" width="230" height="164" fill="#1E1E1E"></rect>
<rect x="231" y="103" width="294" height="77" rx="30" fill="#D9D9D9"></rect>
<rect x="254" y="113" width="249" height="79" rx="5" fill="#015BEF"></rect>
<rect width="194.434" height="31.6316" rx="5" transform="matrix(-0.396194 -0.918167 -0.918167 0.396194 600.581 419.949)" fill="#D9D9D9"></rect>
<path d="M502.476 125.002C507.081 111.344 521.918 104.039 535.551 108.716L567.818 119.787C576.308 122.7 582.695 129.785 584.714 138.531L596.631 190.143C599.346 201.904 593.611 213.986 582.783 219.318L561.344 229.874C550.515 235.206 537.442 232.385 529.776 223.062L496.132 182.148C490.432 175.215 488.71 165.832 491.577 157.327L502.476 125.002Z" fill="#D9D9D9"></path>
<path d="M487.832 167.66C492.437 154.002 507.273 146.696 520.907 151.374L553.173 162.444C561.663 165.357 568.05 172.443 570.069 181.188L581.986 232.801C584.701 244.561 578.966 256.644 568.138 261.975L546.699 272.532C535.87 277.864 522.797 275.042 515.131 265.72L481.487 224.805C475.787 217.873 474.065 208.49 476.933 199.985L487.832 167.66Z" fill="#D9D9D9"></path>
<path d="M601.445 389.92C604.754 415.003 570.052 424.926 559.6 401.886L476.487 218.683C470.936 206.447 477.554 192.136 490.473 188.442L547.274 172.199C560.193 168.504 573.376 177.152 575.134 190.473L601.445 389.92Z" fill="#D9D9D9"></path>
<path d="M506.873 204.174C512.636 160.424 570.423 148.599 592.908 186.569V186.569C596.188 192.109 598.282 198.27 599.055 204.661L620.955 385.659C622.931 401.985 612.046 417.095 595.934 420.392V420.392C579.822 423.688 563.878 414.069 559.281 398.278L508.326 223.226C506.527 217.045 506.032 210.557 506.873 204.174V204.174Z" fill="#D9D9D9"></path>
<rect x="159.504" y="419.949" width="194.434" height="31.6316" rx="5" transform="rotate(-66.6596 159.504 419.949)" fill="#D9D9D9"></rect>
<path d="M256.465 125.002C251.86 111.344 237.023 104.039 223.389 108.716L191.123 119.787C182.633 122.7 176.246 129.785 174.227 138.531L162.31 190.143C159.595 201.904 165.33 213.986 176.158 219.318L197.597 229.874C208.426 235.206 221.499 232.385 229.165 223.062L262.809 182.148C268.509 175.215 270.231 165.832 267.363 157.327L256.465 125.002Z" fill="#D9D9D9"></path>
<path d="M271.109 167.66C266.504 154.002 251.668 146.696 238.034 151.374L205.767 162.444C197.278 165.357 190.891 172.443 188.872 181.188L176.955 232.801C174.24 244.561 179.975 256.644 190.803 261.975L212.242 272.532C223.07 277.864 236.144 275.042 243.81 265.72L277.453 224.805C283.154 217.873 284.876 208.49 282.008 199.985L271.109 167.66Z" fill="#D9D9D9"></path>
<path d="M157.496 389.92C154.187 415.003 188.889 424.926 199.341 401.886L282.454 218.683C288.005 206.447 281.387 192.136 268.468 188.442L211.667 172.199C198.748 168.504 185.564 177.152 183.807 190.473L157.496 389.92Z" fill="#D9D9D9"></path>
<path d="M252.068 204.174C246.305 160.424 188.518 148.599 166.033 186.569V186.569C162.753 192.109 160.659 198.27 159.886 204.661L137.986 385.659C136.01 401.985 146.895 417.095 163.007 420.392V420.392C179.118 423.688 195.063 414.069 199.66 398.278L250.615 223.226C252.414 217.045 252.909 210.557 252.068 204.174V204.174Z" fill="#D9D9D9"></path>
<rect x="279.458" y="98.2545" width="198.136" height="107.683" rx="36" fill="#D9D9D9"></rect>
<path d="M283.516 186.857C286.649 195.768 299.251 195.768 302.384 186.857L328.928 111.356C331.214 104.852 326.388 98.0391 319.494 98.0391H266.406C259.511 98.0391 254.685 104.852 256.972 111.356L283.516 186.857Z" fill="#D9D9D9"></path>
<path d="M454.67 186.857C457.803 195.768 470.405 195.768 473.538 186.857L500.081 111.356C502.368 104.852 497.542 98.0391 490.648 98.0391H437.56C430.665 98.0391 425.839 104.852 428.126 111.356L454.67 186.857Z" fill="#D9D9D9"></path>
<path d="M495.04 99.0898C462.049 86.0929 420.927 79.0026 378.523 79C336.119 78.9974 294.994 86.0826 261.996 99.0756L378.5 169.5L495.04 99.0898Z" fill="#D9D9D9"></path>
<circle class="b10" cx="307" cy="251" r="25.5" fill="#1E1E1E" stroke="#D9D9D9"></circle>
<circle class="b11" cx="449" cy="251" r="25.5" fill="#1E1E1E" stroke="#D9D9D9"></circle>
<circle class="b0" cx="537.486" cy="230.571" r="13.2381" transform="rotate(-135 537.486 230.571)" fill="#D9D9D9" stroke="#1E1E1E"></circle>
<circle class="b1" cx="568.571" cy="199.486" r="13.2381" transform="rotate(-135 568.571 199.486)" fill="#D9D9D9" stroke="#1E1E1E"></circle>
<circle class="b2" cx="505.429" cy="198.514" r="13.2381" transform="rotate(-135 505.429 198.514)" fill="#D9D9D9" stroke="#1E1E1E"></circle>
<circle class="b3" cx="536.514" cy="167.429" r="13.2381" transform="rotate(-135 536.514 167.429)" fill="#D9D9D9" stroke="#1E1E1E"></circle>
<path class="b13" d="M223.578 211.571L232.751 220.171C233.945 221.289 234.437 222.967 234.038 224.553L230.077 240.279C229.574 242.279 227.776 243.68 225.714 243.68H215.286C213.224 243.68 211.426 242.279 210.923 240.279L206.962 224.553C206.563 222.967 207.055 221.289 208.249 220.171L217.422 211.571C219.153 209.948 221.847 209.948 223.578 211.571Z" fill="#D9D9D9" stroke="#1E1E1E"></path>
<path class="b12" d="M223.578 185.429L232.751 176.829C233.945 175.711 234.437 174.033 234.038 172.447L230.077 156.721C229.574 154.721 227.776 153.32 225.714 153.32H215.286C213.224 153.32 211.426 154.721 210.923 156.721L206.962 172.447C206.563 174.033 207.055 175.711 208.249 176.829L217.422 185.429C219.153 187.052 221.847 187.052 223.578 185.429Z" fill="#D9D9D9" stroke="#1E1E1E"></path>
<path class="b15" d="M233.571 196.422L242.171 187.249C243.289 186.055 244.967 185.563 246.553 185.962L262.279 189.923C264.279 190.426 265.68 192.224 265.68 194.286V204.714C265.68 206.776 264.279 208.574 262.279 209.077L246.553 213.038C244.967 213.437 243.289 212.945 242.171 211.751L233.571 202.578C231.948 200.847 231.948 198.153 233.571 196.422Z" fill="#D9D9D9" stroke="#1E1E1E"></path>
<path class="b14" d="M207.429 196.422L198.829 187.249C197.711 186.055 196.033 185.563 194.447 185.962L178.721 189.923C176.721 190.426 175.32 192.224 175.32 194.286V204.714C175.32 206.776 176.721 208.574 178.721 209.077L194.447 213.038C196.033 213.437 197.711 212.945 198.829 211.751L207.429 202.578C209.052 200.847 209.052 198.153 207.429 196.422Z" fill="#D9D9D9" stroke="#1E1E1E"></path>
<rect class="b8" x="234.639" y="129.665" width="9" height="19" rx="4.5" transform="rotate(-19.6438 234.639 129.665)" fill="#D9D9D9" stroke="#1E1E1E"></rect>
<rect class="b16" x="369.5" y="275.5" width="9" height="19" rx="4.5" transform="rotate(-90 369.5 275.5)" fill="#1E1E1E" stroke="#D9D9D9"></rect>
<rect class="b9" x="-0.638986" y="0.302814" width="9" height="19" rx="4.5" transform="matrix(-0.941801 -0.336172 -0.336172 0.941801 522.073 129.165)" fill="#D9D9D9" stroke="#1E1E1E"></rect>
</svg>